<svg width="49" height="49" viewBox="0 0 49 49" fill="none" xmlns="http://www.w3.org/2000/svg">
<path d="M39.9063 36.6563C40.3378 37.0878 40.5802 37.673 40.5802 38.2832C40.5802 38.8934 40.3378 39.4787 39.9063 39.9102C39.4748 40.3417 38.8896 40.5841 38.2794 40.5841C37.6692 40.5841 37.0839 40.3417 36.6524 39.9102L24.5 27.754L12.3438 39.9063C11.9123 40.3378 11.3271 40.5803 10.7169 40.5803C10.1066 40.5803 9.52142 40.3378 9.08992 39.9063C8.65843 39.4749 8.41602 38.8896 8.41602 38.2794C8.41602 37.6692 8.65843 37.0839 9.08992 36.6524L21.2461 24.5001L9.09375 12.3438C8.66225 11.9124 8.41984 11.3271 8.41984 10.7169C8.41984 10.1067 8.66225 9.52144 9.09375 9.08994C9.52524 8.65845 10.1105 8.41604 10.7207 8.41604C11.3309 8.41604 11.9162 8.65845 12.3477 9.08994L24.5 21.2462L36.6562 9.08803C37.0877 8.65653 37.673 8.41412 38.2832 8.41412C38.8934 8.41412 39.4787 8.65653 39.9102 9.08803C40.3417 9.51952 40.5841 10.1048 40.5841 10.715C40.5841 11.3252 40.3417 11.9104 39.9102 12.3419L27.7539 24.5001L39.9063 36.6563Z" fill="black"/>
</svg>
