<svg width="47" height="47" viewBox="0 0 47 47" fill="none" xmlns="http://www.w3.org/2000/svg">
<path d="M5.87504 7.83337C3.72087 7.83337 1.95837 9.59587 1.95837 11.75V35.25C1.95837 37.4042 3.72087 39.1667 5.87504 39.1667H26.4375C25.9049 37.9216 25.5743 36.5994 25.4584 35.25H5.87504V15.6667L21.5417 25.4584L37.2084 15.6667V21.5417C37.5346 21.5291 37.8613 21.5291 38.1875 21.5417C39.1771 21.5446 40.1629 21.6629 41.125 21.8942V11.75C41.125 9.59587 39.3625 7.83337 37.2084 7.83337H5.87504ZM5.87504 11.75H37.2084L21.5417 21.5417L5.87504 11.75ZM37.2084 23.5L32.8021 27.9063L37.2084 32.3125V29.375C38.5068 29.375 39.7521 29.8908 40.6702 30.809C41.5884 31.7271 42.1042 32.9724 42.1042 34.2709C42.1042 35.0542 41.928 35.7984 41.595 36.4642L43.7296 38.5988C44.5521 37.365 45.0417 35.8767 45.0417 34.2709C45.0417 29.943 41.5363 26.4375 37.2084 26.4375V23.5ZM30.6871 29.943C29.8646 31.1767 29.375 32.665 29.375 34.2709C29.375 38.5988 32.8805 42.1042 37.2084 42.1042V45.0417L41.6146 40.6355L37.2084 36.2292V39.1667C35.9099 39.1667 34.6646 38.6509 33.7465 37.7327C32.8283 36.8146 32.3125 35.5693 32.3125 34.2709C32.3125 33.4875 32.4888 32.7434 32.8217 32.0775L30.6871 29.943Z" fill="black"/>
</svg>
